Simulation
nRows=42
nColumns=15
endheader
time  TH_x TH_y TH_z SC_y  SC_z  SC_x  AC_y  AC_z  AC_x  GH_y  GH_z  GH_yy  EL_x  PS_y
2.6910411985018725  0.000000  0.000000  0.000000  -21.5463239921552  -5.656394628186119  -14.354240204226338  56.26338793510458  11.213326913706847  4.062133684591306  -7.455530827845607  15.614709379188012  34.99109326668552  15.900076849995596  120.000000
2.7312059925093632  0.000000  0.000000  0.000000  -20.63611595627915  -6.310830320345512  -14.738667503498984  56.29479943763621  11.597605075971948  3.8590491608249153  -5.7085114904465915  14.307913118562444  35.41379217646219  16.645963594200765  120.000000
2.771370786516854  0.000000  0.000000  0.000000  -19.91156854306567  -6.861735109205354  -15.06306484942533  56.27031233437875  11.95420153708088  3.6453062002412  -3.5990381772463302  13.033147265951978  35.26526262793902  17.305839253536842  120.000000
2.8115355805243447  0.000000  0.000000  0.000000  -19.35667461280008  -7.324922677093544  -15.344928088558605  56.18284170831781  12.26581222147497  3.4281265543633843  -1.1333680826985792  11.778724704710248  34.56070676612822  17.85400713002936  120.000000
2.851700374531835  0.000000  0.000000  0.000000  -18.94965710789185  -7.714484507506276  -15.594314318154387  56.03529371525087  12.524740714582336  3.212176324199123  1.7105743319743463  10.542418193687103  33.29346902525806  18.276434779126927  120.000000
2.8918651685393257  0.000000  0.000000  0.000000  -18.668541508774588  -8.040575295504857  -15.815001009549299  55.83940015922936  12.731973540873263  2.997941851644647  5.009943554426724  9.332121939483063  31.40183414129575  18.570490969593106  120.000000
2.9320299625468165  0.000000  0.000000  0.000000  -18.491199650002727  -8.309725994334883  -16.00535086752554  55.609711929642785  12.893996155548665  2.7847174538150674  8.901650962692583  8.162882363647144  28.76244886503363  18.742550419428515  120.000000
2.972194756554307  0.000000  0.000000  0.000000  -18.39534226748979  -8.526513788232911  -16.160766301769144  55.36023891580745  13.019142804807835  2.5723667750885033  13.592537712714954  7.054045671437355  25.18013933019735  18.806207594529642  120.000000
3.012359550561798  0.000000  0.000000  0.000000  -18.360282220585077  -8.69495599681501  -16.27635197170998  55.103957416956156  13.115671862543996  2.3613673088097267  19.377319573015008  6.028480608520007  20.370559610408414  18.78089634245984  120.000000
3.0525243445692882  0.000000  0.000000  0.000000  -18.368165286826002  -8.818864447489453  -16.3481063357752  54.85179746685367  13.190719853455429  2.1531665832328173  26.644951608803648  5.113200099111555  13.953914562952303  18.68939989297833  120.000000
3.092689138576779  0.000000  0.000000  0.000000  -18.404556137307925  -8.90211240096304  -16.37340324651712  54.612174611829516  13.250040111835121  1.950083517062413  35.821597989353336  4.3394299791013315  5.512321350984065  18.555192253127476  120.000000
3.1328539325842697  0.000000  0.000000  0.000000  -18.458424337276583  -8.948533910494378  -16.352217782646758  54.39148840807452  13.297242151252739  1.7543345204781422  47.17422564446764  3.740470756654353  -5.213654922794878  18.39961905340037  120.000000
3.1730187265917604  0.000000  0.000000  0.000000  -18.522096451746872  -8.961801504789879  -16.28747463048843  54.195326957467  13.33376223735231  1.5671126443117802  60.41731552467774  3.343039631152423  -17.931804545484468  18.239580638158227  120.000000
3.2131835205992507  0.000000  0.000000  0.000000  -18.590819852526323  -8.94568957582994  -16.183635113138124  54.02734008012825  13.359635331727294  1.389664870734322  74.39203099265558  3.14981435476126  -31.47686186467607  18.08633885455857  120.000000
3.2533483146067415  0.000000  0.000000  0.000000  -18.662208776493582  -8.90402471876011  -16.045720406779587  53.88918499288453  13.374258046617873  1.2237642066727998  87.46829103122701  3.127368400081325  -44.21293337819349  17.94531750203656  120.000000
3.293513108614232  0.000000  0.000000  0.000000  -18.735602715616682  -8.840306700258358  -15.878967995309727  53.78148683983506  13.376960308356328  1.0713823613862201  98.48074401036706  3.2161993561173663  -54.96939838543404  17.817453756635427  120.000000
3.333677902621723  0.000000  0.000000  0.000000  -18.811342530874985  -8.757318619944025  -15.688332536703468  53.70424148056373  13.367053271831464  0.9342365137680474  107.11860194475308  3.354394438080486  -63.43075880506017  17.700979877652838  120.000000
3.3738426966292137  0.000000  0.000000  0.000000  -18.890233808517486  -8.656863176816692  -15.478256787072556  53.65694390920585  13.344322665808738  0.8138075817619509  113.61195616263862  3.492953733061492  -69.82298130174935  17.59302387476126  120.000000
3.414007490636704  0.000000  0.000000  0.000000  -18.972951162682115  -8.539773229806302  -15.252269427114346  53.6384590122653  13.309412430718035  0.7115360981442919  118.33796866408692  3.5980665517852377  -74.51961245559733  17.49106032603693  120.000000
3.4541722846441947  0.000000  0.000000  0.000000  -19.059449655965402  -8.405950308936545  -15.012798951939168  53.64718458818531  13.263989178947693  0.6288241891999878  121.62509479508041  3.6479052905476586  -77.8460866368132  17.39348798409675  120.000000
3.4943370786516854  0.000000  0.000000  0.000000  -19.148664418720372  -8.25430497095796  -14.761272095773908  53.681214058930784  13.210748980278504  0.5668683371641625  123.69609557068055  3.6288727156376352  -80.02267174147521  17.299682893888434  120.000000
3.534501872659176  0.000000  0.000000  0.000000  -19.238081574249286  -8.082500945282526  -14.498270674519365  53.739176923160784  13.153480430653852  0.5262826129513056  124.65203690849408  3.5335352268314786  -81.14854517791494  17.209458597348892  120.000000
3.574666666666667  0.000000  0.000000  0.000000  -19.323334953467093  -7.8871674654509745  -14.223360626809775  53.82072004853012  13.097239279833033  0.5074508018720835  124.44777676355649  3.359884574425005  -81.17730396172007  17.12230397535543  120.000000
3.614831460674157  0.000000  0.000000  0.000000  -19.398174644595528  -7.665032027861689  -13.934476723767956  53.92595029877692  13.048426726973297  0.5114871924841399  122.85129440530513  3.111332017049621  -79.8762003716304  17.036462599053312  120.000000
3.654996254681648  0.000000  0.000000  0.000000  -19.454544008887154  -7.413959627943161  -13.628052481300223  54.05252758788353  13.01371895985237  0.5419483358806001  119.39736409191484  2.797044526867803  -76.77960224813313  16.947804981094876  120.000000
3.6951610486891386  0.000000  0.000000  0.000000  -19.484173110847287  -7.13355547032109  -13.301110452620609  54.19540395192293  12.998368662763818  0.6037493246708102  113.25407826360896  2.4355183607787896  -71.05522108974888  16.84982356168472  120.000000
3.7353258426966294  0.000000  0.000000  0.000000  -19.478231015163452  -6.823868034715497  -12.95430019921692  54.351242141021174  13.00501792319032  0.6999000881724454  102.92989641374575  2.0662152575376593  -61.21141509875408  16.734202996080217  120.000000
3.7754906367041197  0.000000  0.000000  0.000000  -19.427447955963192  -6.4845462394734605  -12.591513988800147  54.51961018515896  13.033732956709924  0.8311584064082652  86.32311650221419  1.7680076052106384  -45.1465456779378  16.59215847084377  120.000000
3.8156554307116104  0.000000  0.000000  0.000000  -19.324332025450843  -6.116499627111449  -12.217698750712755  54.69877671257093  13.08199069715047  0.998609258408694  63.166870555174576  1.6670828258856367  -22.593683880265274  16.415028949909303  120.000000
3.855820224719101  0.000000  0.000000  0.000000  -19.163307830954945  -5.721940534259085  -11.838668713562647  54.88470842101832  13.144786698491666  1.2043456741583574  39.358604528366406  1.8635198478512163  0.5490104545792609  16.194436820757293  120.000000
3.895985018726592  0.000000  0.000000  0.000000  -18.941235864594802  -5.302497452168891  -11.460851501296457  55.072397767795806  13.215924482223835  1.450234152853528  21.35350866585347  2.3239343945448567  17.824940723695473  15.923577226975873  120.000000
3.9361498127340826  0.000000  0.000000  0.000000  -18.65771694647914  -4.857463909389965  -11.090109937010174  55.25526007603429  13.290017688357453  1.7375969851164141  9.37923917333783  2.9507151710332913  29.00400390161136  15.597373541266583  120.000000
3.976314606741573  0.000000  0.000000  0.000000  -18.317796988850453  -4.383196042273898  -10.730002739161128  55.42607673494253  13.365168452330972  2.0669560381864636  1.3763959050511934  3.676128115086347  36.14198128547798  15.214404915992779  120.000000
4.016479400749064  0.000000  0.000000  0.000000  -17.936186262889795  -3.8736584012882758  -10.379930903645478  55.5782530521292  13.444827386152483  2.4379996828710775  -4.174315895997978  4.470356502605585  40.75439162168239  14.779918440575432  120.000000
4.056644194756554  0.000000  0.000000  0.000000  -17.53593008218713  -3.32083412734426  -10.034207277411284  55.706898533139366  13.538208130547353  2.849027834641267  -8.111378746279355  5.327313471517346  43.677940911282896  14.30643705870764  120.000000
4.096808988764045  0.000000  0.000000  0.000000  -17.14457824344222  -2.7149155949053725  -9.681834821715478  55.80844197696936  13.658455071931565  3.297136254521161  -10.897764484591114  6.254069890660028  45.3775728595478  13.812691069657278  120.000000
4.136973782771536  0.000000  0.000000  0.000000  -16.791744956156613  -2.0458843492711125  -9.307656083408766  55.87951834077213  13.81973423173161  3.779328802973428  -12.812181715088057  7.264518329196041  46.1376235601733  13.321238039995698  120.000000
4.177138576779027  0.000000  0.000000  0.000000  -16.50687719038258  -1.3058314220246499  -8.89417002282634  55.917354887866196  14.034664372853758  4.292740188261004  -14.04158371533459  8.375126061791095  46.154637558055406  12.855903850351648  120.000000
4.217303370786517  0.000000  0.000000  0.000000  -16.317738261777553  -0.49072544922027067  -8.423372783223533  55.91952713704198  14.312125963517035  4.835345231749534  -14.728423566153346  9.601370463967074  45.58369244696943  12.438564860074333  120.000000
4.257468164794007  0.000000  0.000000  0.000000  -16.249800451592034  0.3985175636697856  -7.878478574285752  55.883677470563875  14.655775973572885  5.406124964055627  -14.990222888847102  10.955093196873856  44.556146099181085  12.085327451967165  120.000000
4.297632958801498  0.000000  0.000000  0.000000  -16.325323802197396  1.3560308269696941  -7.245244465785786  55.80805362760485  15.063515745278508  6.004690712587268  -14.925168891487163  12.442500647675  43.183566107170776  11.803690416657036  120.000000
4.337797752808989  0.000000  0.000000  0.000000  -16.561661832272403  2.3705830153702365  -6.512786150268408  55.69270614150163  15.527853294670166  6.631177869370512  -14.611461833198563  14.062957816778844  41.555900179865326  11.591351005633069  120.000000
